<mxfile host="app.diagrams.net" modified="2023-11-03T21:59:53.001Z" agent="Mozilla/5.0 (X11; Linux x86_64) AppleWebKit/537.36 (KHTML, like Gecko) Chrome/118.0.0.0 Safari/537.36" etag="LM_w_0hZSu6GKW2Ghyg-" version="22.0.8" type="device">
  <diagram name="Page-1" id="-ulH3O3-4FexaumD8vs6">
    <mxGraphModel dx="2006" dy="654" grid="1" gridSize="10" guides="1" tooltips="1" connect="1" arrows="1" fold="1" page="1" pageScale="1" pageWidth="827" pageHeight="1169" math="0" shadow="0">
      <root>
        <mxCell id="0" />
        <mxCell id="1" parent="0" />
        <mxCell id="7DDmQKchOeRSoel_VwaO-5" value="" style="rounded=0;whiteSpace=wrap;html=1;fillColor=#f5f5f5;fontColor=#333333;strokeColor=#666666;" parent="1" vertex="1">
          <mxGeometry x="320" y="280" width="160" height="40" as="geometry" />
        </mxCell>
        <mxCell id="7DDmQKchOeRSoel_VwaO-6" value="&lt;b style=&quot;border-color: var(--border-color);&quot;&gt;&lt;font style=&quot;border-color: var(--border-color);&quot; face=&quot;Courier New&quot;&gt;0xcafebabe&lt;/font&gt;&lt;/b&gt;" style="rounded=0;whiteSpace=wrap;html=1;fillColor=#dae8fc;strokeColor=#6c8ebf;" parent="1" vertex="1">
          <mxGeometry x="320" y="240" width="160" height="40" as="geometry" />
        </mxCell>
        <mxCell id="7DDmQKchOeRSoel_VwaO-7" value="" style="rounded=0;whiteSpace=wrap;html=1;fillColor=#f5f5f5;fontColor=#333333;strokeColor=#666666;" parent="1" vertex="1">
          <mxGeometry x="320" y="200" width="160" height="40" as="geometry" />
        </mxCell>
        <mxCell id="7DDmQKchOeRSoel_VwaO-8" value="" style="rounded=0;whiteSpace=wrap;html=1;fillColor=#f5f5f5;fontColor=#333333;strokeColor=#666666;" parent="1" vertex="1">
          <mxGeometry x="320" y="160" width="160" height="40" as="geometry" />
        </mxCell>
        <mxCell id="7DDmQKchOeRSoel_VwaO-13" value="&lt;b&gt;&lt;font face=&quot;Courier New&quot;&gt;0x700000F4&lt;/font&gt;&lt;/b&gt;" style="text;html=1;strokeColor=none;fillColor=none;align=center;verticalAlign=middle;whiteSpace=wrap;rounded=0;" parent="1" vertex="1">
          <mxGeometry x="200" y="285" width="90" height="30" as="geometry" />
        </mxCell>
        <mxCell id="7DDmQKchOeRSoel_VwaO-14" value="&lt;b&gt;&lt;font face=&quot;Courier New&quot;&gt;0x700000F0&lt;/font&gt;&lt;/b&gt;" style="text;html=1;strokeColor=none;fillColor=none;align=center;verticalAlign=middle;whiteSpace=wrap;rounded=0;" parent="1" vertex="1">
          <mxGeometry x="200" y="245" width="90" height="30" as="geometry" />
        </mxCell>
        <mxCell id="7DDmQKchOeRSoel_VwaO-15" value="&lt;b&gt;&lt;font face=&quot;Courier New&quot;&gt;0x700000EC&lt;/font&gt;&lt;/b&gt;" style="text;html=1;strokeColor=none;fillColor=none;align=center;verticalAlign=middle;whiteSpace=wrap;rounded=0;" parent="1" vertex="1">
          <mxGeometry x="200" y="205" width="90" height="30" as="geometry" />
        </mxCell>
        <mxCell id="7DDmQKchOeRSoel_VwaO-16" value="&lt;b&gt;&lt;font face=&quot;Courier New&quot;&gt;0x700000E8&lt;/font&gt;&lt;/b&gt;" style="text;html=1;strokeColor=none;fillColor=none;align=center;verticalAlign=middle;whiteSpace=wrap;rounded=0;" parent="1" vertex="1">
          <mxGeometry x="200" y="165" width="90" height="30" as="geometry" />
        </mxCell>
        <mxCell id="weiLWwNsHWYrnJDk8qsG-1" value="&lt;b&gt;&lt;font face=&quot;Courier New&quot;&gt;&lt;font color=&quot;#009900&quot;&gt;EAX&lt;/font&gt; =&amp;nbsp;&lt;/font&gt;&lt;/b&gt;&lt;b style=&quot;border-color: var(--border-color);&quot;&gt;&lt;font style=&quot;border-color: var(--border-color);&quot; face=&quot;Courier New&quot;&gt;0x700000F0&lt;/font&gt;&lt;/b&gt;" style="text;html=1;strokeColor=none;fillColor=none;align=center;verticalAlign=middle;whiteSpace=wrap;rounded=0;" vertex="1" parent="1">
          <mxGeometry x="-70" y="245" width="180" height="30" as="geometry" />
        </mxCell>
        <mxCell id="weiLWwNsHWYrnJDk8qsG-2" value="&lt;b&gt;&lt;font face=&quot;Courier New&quot;&gt;&lt;font color=&quot;#cc0000&quot;&gt;EBX&lt;/font&gt; =&amp;nbsp;&lt;/font&gt;&lt;/b&gt;&lt;b style=&quot;border-color: var(--border-color);&quot;&gt;&lt;font style=&quot;border-color: var(--border-color);&quot; face=&quot;Courier New&quot;&gt;0xcafebabe&lt;/font&gt;&lt;/b&gt;" style="text;html=1;strokeColor=none;fillColor=none;align=center;verticalAlign=middle;whiteSpace=wrap;rounded=0;" vertex="1" parent="1">
          <mxGeometry x="-70" y="215" width="180" height="30" as="geometry" />
        </mxCell>
        <mxCell id="weiLWwNsHWYrnJDk8qsG-3" value="" style="endArrow=classic;html=1;rounded=0;entryX=0;entryY=0.5;entryDx=0;entryDy=0;" edge="1" parent="1" target="7DDmQKchOeRSoel_VwaO-14">
          <mxGeometry width="50" height="50" relative="1" as="geometry">
            <mxPoint x="80" y="260" as="sourcePoint" />
            <mxPoint x="-10" y="220" as="targetPoint" />
          </mxGeometry>
        </mxCell>
      </root>
    </mxGraphModel>
  </diagram>
</mxfile>
